<svg xmlns="http://www.w3.org/2000/svg" viewBox="0 0 500 500"><ellipse cx="250.17" cy="346.97" rx="235.61" ry="136.03" style="fill:#f0f0f0"/><path d="M71.24 395.41 30.6 372c-2.29-1.33-2.29-3.47 0-4.79L267 230.68a9.13 9.13 0 0 1 8.3 0l40.64 23.46c2.29 1.32 2.29 3.47 0 4.79L79.54 395.41a9.19 9.19 0 0 1-8.3 0" style="fill:#e0e0e0"/><path d="m245.93 405.12-97.61-56.35 121.98-70.29 97.49 56.28z" style="fill:#e0e0e0"/><ellipse cx="380.69" cy="403.61" rx="46.14" ry="26.64" style="fill:#e0e0e0"/><path d="M442.6 371.53c5 2.89 5 7.57 0 10.46s-13.11 2.88-18.11 0-5-7.57 0-10.46 13.11-2.89 18.11 0" style="fill:#e0e0e0"/><path d="m217.32 353.59 34.94-20.2c3.6-2.08 5.4-4.8 5.4-7.53V321l-36.25-20.44a7.68 7.68 0 0 1-3.48-6v-43.09l-61 35.26v43.07a7.7 7.7 0 0 0 3.48 6l30.84 17.76c7.19 4.19 18.87 4.19 26.07.03" style="fill:#ab84f9"/><path d="m217.32 353.59 34.94-20.2c3.6-2.08 5.4-4.8 5.4-7.53V321l-36.25-20.44a7.68 7.68 0 0 1-3.48-6v-43.09l-61 35.26v43.07a7.7 7.7 0 0 0 3.48 6l30.84 17.76c7.19 4.19 18.87 4.19 26.07.03" style="opacity:.6000000000000001"/><path d="M171.58 337.43v4.84l-11.19-6.45a7.67 7.67 0 0 1-3.47-6v-43.09l11.62-6.73c.24 3 .51 6 .75 9l-8.16 4.72v33.65a7.63 7.63 0 0 0 3.48 6Z" style="opacity:.30000000000000004"/><path d="M161.13 327.38a7.68 7.68 0 0 0 3.48 6l26.62 15.34c7.2 4.15 18.88 4.16 26.09 0l35-20.2c7.21-4.16 7.21-10.9 0-15.06l-26.63-15.34a7.67 7.67 0 0 1-3.48-6v-33.66l-61 35.26Z" style="fill:#ab84f9"/><path d="M161.13 327.38a7.68 7.68 0 0 0 3.48 6l26.62 15.34c7.2 4.15 18.88 4.16 26.09 0l35-20.2c7.21-4.16 7.21-10.9 0-15.06l-26.63-15.34a7.67 7.67 0 0 1-3.48-6v-33.66l-61 35.26Z" style="opacity:.30000000000000004"/><path d="m232.72 302.23-7.08-4.09a7.67 7.67 0 0 1-3.48-6v-33.68l-61 35.26v33.66a7.68 7.68 0 0 0 3.48 6l7 4Z" style="opacity:.5"/><path d="M257.67 321v4.86c0 2.73-1.81 5.44-5.4 7.53l-35 20.19a26.2 26.2 0 0 1-12.45 3.09v-4.84a26.2 26.2 0 0 0 12.45-3.09l35-20.21c3.59-2.06 5.4-4.79 5.4-7.53" style="fill:#ab84f9"/><path d="M257.67 321v4.86c0 2.73-1.81 5.44-5.4 7.53l-35 20.19a26.2 26.2 0 0 1-12.45 3.09v-4.84a26.2 26.2 0 0 0 12.45-3.09l35-20.21c3.59-2.06 5.4-4.79 5.4-7.53" style="opacity:.5"/><path d="M63.15 369.21a9.35 9.35 0 0 0 8.43-.15l236-136.25a9.62 9.62 0 0 0 4.35-7.53V34.36a9.32 9.32 0 0 0-4.09-7.36 9.3 9.3 0 0 0-8.42.16l-236 136.24a9.58 9.58 0 0 0-4.34 7.52v190.92a9.32 9.32 0 0 0 4.07 7.37" style="fill:#ab84f9"/><path d="m71.58 369.05 236-136.25a9.61 9.61 0 0 0 4.35-7.53V34.36c0-2.77-1.95-3.9-4.35-2.51l-236 136.25a9.61 9.61 0 0 0-4.35 7.53v190.91c0 2.77 1.95 3.9 4.35 2.51" style="fill:#ab84f9"/><path d="m71.58 369.05 236-136.25a9.61 9.61 0 0 0 4.35-7.53V34.36c0-2.77-1.95-3.9-4.35-2.51l-236 136.25a9.61 9.61 0 0 0-4.35 7.53v190.91c0 2.77 1.95 3.9 4.35 2.51" style="opacity:.5"/><path d="M70.94 374a9.34 9.34 0 0 1-7.79-.16 9.33 9.33 0 0 1-4.08-7.39v-17.37l8.15 4.72v17.38c0 2.53 1.61 3.68 3.72 2.82" style="fill:#ab84f9"/><path d="M70.94 374a9.34 9.34 0 0 1-7.79-.16 9.33 9.33 0 0 1-4.08-7.39v-17.37l8.15 4.72v17.38c0 2.53 1.61 3.68 3.72 2.82" style="opacity:.5"/><path d="M67.22 353.8v17.38c0 2.77 2 3.89 4.35 2.51l236-136.25a9.62 9.62 0 0 0 4.35-7.53v-17.42Z" style="fill:#ab84f9"/><path d="M67.23 353.76v17.42c0 2.77 2 3.89 4.35 2.51l236-136.25a9.62 9.62 0 0 0 4.35-7.53v-17.42Z" style="opacity:.30000000000000004"/><path d="M75.38 332V178.33a5.75 5.75 0 0 1 2.6-4.51L301.15 45c1.44-.83 2.61-.16 2.61 1.5v153.64a5.76 5.76 0 0 1-2.61 4.52L78 333.5c-1.45.83-2.62.15-2.62-1.5" style="fill:#ab84f9"/><path d="M75.38 332V178.33a5.75 5.75 0 0 1 2.6-4.51L301.15 45c1.44-.83 2.61-.16 2.61 1.5v153.64a5.76 5.76 0 0 1-2.61 4.52L78 333.5c-1.45.83-2.62.15-2.62-1.5" style="fill:#263238"/><path d="M68.51 171.33a9.25 9.25 0 0 0-1.29 4.29V353.8l-8.15-4.72V170.92a8.9 8.9 0 0 1 1.28-4.29Z" style="opacity:.7000000000000001"/><path d="M311.88 33.64c-.31-2.24-2.12-3.05-4.31-1.8L71.58 168.1a8.94 8.94 0 0 0-3.07 3.23l-8.16-4.71a9 9 0 0 1 3.08-3.23l236-136.24a9.32 9.32 0 0 1 8.43-.16 9.37 9.37 0 0 1 4.02 6.65" style="opacity:.30000000000000004"/><path d="M93.61 207.75a4.65 4.65 0 0 1-2-3.67v-16.91a4.81 4.81 0 0 1 2.17-3.75L315.87 55.17a4.06 4.06 0 0 1 6.22 3.59v16.9a4.74 4.74 0 0 1-2.16 3.75L97.8 207.67a4.62 4.62 0 0 1-4.19.08" style="fill:#ab84f9"/><path d="M322.07 58.41c-.15-1.12-1.06-1.53-2.14-.9L97.8 185.77a4.6 4.6 0 0 0-1.53 1.62L92.21 185a4.5 4.5 0 0 1 1.53-1.62L315.87 55.17a4 4 0 0 1 6.2 3.24" style="fill:#fff;opacity:.4"/><path d="M97.8 345.24a3.6 3.6 0 0 1-1.7.52 4.26 4.26 0 0 1-2.49-.44 4.62 4.62 0 0 1-2-3.67V212.82l4.07 2.35V344c0 1 .49 1.55 1.2 1.55a2.1 2.1 0 0 0 .92-.31" style="fill:#f0f0f0"/><path d="M96.27 187.39a4.4 4.4 0 0 0-.63 2.13v25.65l-4.07-2.35v-25.91a4 4 0 0 1 .09-.53 4.8 4.8 0 0 1 .54-1.34Z" style="opacity:.1"/><path d="M322.09 58.76v11.57l-159.3 92c-1.19.69-2.16.13-2.16-1.25v-4.38c0-1.38-1-1.94-2.17-1.25l-52.53 30.33a4.78 4.78 0 0 0-2.17 3.75v4.38a4.8 4.8 0 0 1-2.16 3.75l-6 3.44v-11.58a4.8 4.8 0 0 1 2.16-3.75L319.93 57.51c1.19-.69 2.16-.13 2.16 1.25" style="fill:#ab84f9"/><path d="M322.09 213.23a4.79 4.79 0 0 1-2.16 3.76L97.8 345.24c-1.19.69-2.16.13-2.16-1.25v-142.9l6-3.44c1.19-.69 3.13-11.19 4.33-11.88l51.65-29.83c1.2-.69 4 7.07 5.21 6.38l159.3-92v142.9Z" style="fill:#fafafa"/><path d="M321.09 72.06v141.17a3.79 3.79 0 0 1-1.66 2.89L97.3 344.38a1 1 0 0 1-.46.16c-.2 0-.2-.52-.2-.55V201.66l5.46-3.15c.87-.5 1.41-2.18 2.62-6.51a32 32 0 0 1 1.79-5.41L157.7 157a23 23 0 0 1 1.63 2.6c1.39 2.45 2.17 3.73 3.3 3.73a1.3 1.3 0 0 0 .66-.18l157.8-91.12m1-1.7-159.3 92a.3.3 0 0 1-.16 0c-1.21 0-3.67-6.46-4.89-6.46a.3.3 0 0 0-.16 0l-51.65 29.83c-1.2.69-3.14 11.19-4.33 11.88l-6 3.44V344c0 1 .49 1.55 1.2 1.55a1.94 1.94 0 0 0 1-.3L319.93 217a4.79 4.79 0 0 0 2.16-3.76z" style="fill:#e0e0e0"/><path d="m133.64 263.57 29.6-17.09c.8-.46 1.44-.09 1.44.83v49.85a3.18 3.18 0 0 1-1.44 2.5l-29.6 17.09c-.8.46-1.44.08-1.44-.84v-49.84a3.18 3.18 0 0 1 1.44-2.5" style="fill:#f0f0f0"/><path d="m139.05 266.69 18.78-10.84c.79-.46 1.44-.13 1.44.73a3.11 3.11 0 0 1-1.44 2.4l-18.78 10.84c-.79.46-1.44.13-1.44-.73a3.12 3.12 0 0 1 1.44-2.4" style="fill:#e0e0e0"/><path d="M137.61 274.78v1.13c0 .55.39.77.87.5l1-.57a1.89 1.89 0 0 0 .87-1.5v-1.12c0-.56-.39-.78-.87-.5l-1 .56a1.92 1.92 0 0 0-.87 1.5" style="fill:#ab84f9"/><path d="M143 272.22c0 .86.65 1.19 1.45.73l13.36-7.72a3.1 3.1 0 0 0 1.44-2.39c0-.87-.65-1.19-1.44-.73l-13.36 7.71a3.09 3.09 0 0 0-1.45 2.4" style="fill:#e0e0e0"/><path d="M137.61 281v1.13c0 .55.39.77.87.5l1-.57a1.91 1.91 0 0 0 .87-1.5v-1.12c0-.56-.39-.78-.87-.5l-1 .56a1.92 1.92 0 0 0-.87 1.5" style="fill:#ab84f9"/><path d="M143 278.48c0 .86.65 1.19 1.45.73l13.36-7.72a3.1 3.1 0 0 0 1.44-2.39c0-.87-.65-1.19-1.44-.73l-13.36 7.71a3.09 3.09 0 0 0-1.45 2.4" style="fill:#e0e0e0"/><path d="M137.61 287.29v1.12c0 .56.39.78.87.5l1-.56a1.92 1.92 0 0 0 .87-1.5v-1.13c0-.55-.39-.77-.87-.5l-1 .57a1.91 1.91 0 0 0-.87 1.5" style="fill:#ab84f9"/><path d="M143 284.72c0 .87.65 1.19 1.45.73l13.36-7.71a3.1 3.1 0 0 0 1.44-2.39c0-.87-.65-1.19-1.44-.73l-13.36 7.71a3.09 3.09 0 0 0-1.45 2.39" style="fill:#e0e0e0"/><path d="M137.61 293.53v1.13c0 .55.39.78.87.5l1-.56a1.92 1.92 0 0 0 .87-1.5V292c0-.55-.39-.78-.87-.5l-1 .56a1.92 1.92 0 0 0-.87 1.47" style="fill:#ab84f9"/><path d="M143 291c0 .86.65 1.19 1.45.73l13.38-7.73a3.12 3.12 0 0 0 1.44-2.4c0-.86-.65-1.19-1.44-.73l-13.36 7.71A3.11 3.11 0 0 0 143 291M138.94 301.15l18.77-10.84c.8-.46 1.45-.14 1.45.73a3.09 3.09 0 0 1-1.45 2.39l-18.77 10.84c-.8.46-1.45.14-1.44-.73a3.08 3.08 0 0 1 1.44-2.39" style="fill:#e0e0e0"/><path d="M137.49 309.23v1.13c0 .55.39.78.87.5l1-.56a1.91 1.91 0 0 0 .86-1.5v-1.13c0-.55-.39-.78-.86-.5l-1 .56a1.92 1.92 0 0 0-.87 1.5" style="fill:#ab84f9"/><path d="M142.91 306.67c0 .86.65 1.19 1.44.73l13.36-7.71a3.11 3.11 0 0 0 1.45-2.4c0-.86-.65-1.19-1.45-.73l-13.36 7.71a3.12 3.12 0 0 0-1.44 2.4" style="fill:#e0e0e0"/><path d="M311.94 66c1.51-.87 2.73-.16 2.73 1.58a6 6 0 0 1-2.73 4.72c-1.5.86-2.72.16-2.72-1.58a6 6 0 0 1 2.72-4.72M302.13 71.67c1.51-.87 2.73-.17 2.73 1.57a6 6 0 0 1-2.73 4.76c-1.5.87-2.72.16-2.72-1.57a6 6 0 0 1 2.72-4.76" style="fill:#fff"/><ellipse cx="292.32" cy="80.47" rx="3.85" ry="2.22" style="fill:#fff" transform="rotate(-60 292.332 80.466)"/><path d="M322.09 70.33v14.08L95.64 215.17v-14.08l4.45-2.58c1.19-.69 1.59-1.74 2.16-3.75l1.51-5.24c.48-1.82 1-3.06 2.17-3.75l51.65-29.83c1.2-.69 2.14-.76 3 .75l1.85 3.36c.68 1.17 1 1.86 2.21 1.17Z" style="fill:#e6e6e6"/><path d="M95.64 201.09v14.08l-4.07-2.35v-14.07z" style="fill:#e0e0e0"/><path d="m105.57 202.1-3.4 2 1.3-2.49a.64.64 0 0 0 0-.61c-.1-.12-.28 0-.39.19l-1.84 3.54s0 .08-.05.13a.6.6 0 0 0 0 .18.4.4 0 0 0 0 .16 1 1 0 0 0 .05.08l1.84 1.41a.15.15 0 0 0 .18 0 .52.52 0 0 0 .21-.26.55.55 0 0 0 0-.58l-1.3-1 3.4-2a.71.71 0 0 0 .28-.58c0-.14-.13-.27-.28-.17M108.41 200.46l3.4-2-1.3-1c-.11-.08-.12-.34 0-.58s.27-.34.38-.26l1.85 1.42a.13.13 0 0 1 0 .07.6.6 0 0 1 0 .15 1 1 0 0 1 0 .19 1 1 0 0 1 0 .13l-1.85 3.55a.5.5 0 0 1-.18.21.14.14 0 0 1-.2 0 .63.63 0 0 1 0-.61l1.3-2.49-3.4 2c-.15.09-.27 0-.27-.26a.73.73 0 0 1 .27-.52M119.56 190.67c0-.2-.2-.17-.29.05l-.46 1.14c-.8-.09-1.76.69-2.41 2.06-.84 1.78-.84 3.89 0 4.7a1.2 1.2 0 0 0 1.53.09 4.17 4.17 0 0 0 1.52-1.85.58.58 0 0 0 0-.6c-.1-.1-.28 0-.38.23-.63 1.33-1.65 1.92-2.28 1.31s-.63-2.18 0-3.51c.44-.94 1.09-1.5 1.65-1.54l-.35.86c-.09.22 0 .43.13.34l1.39-.91a.42.42 0 0 0 .15-.38ZM156.09 162.37l1.24-2.62a.79.79 0 0 0 0-.82c-.15-.14-.38 0-.53.31l-1.24 2.62-1.24-1.19c-.14-.14-.38 0-.53.3a.84.84 0 0 0 0 .82L155 163l-1.24 2.63a.82.82 0 0 0 0 .81.22.22 0 0 0 .27 0 .8.8 0 0 0 .26-.32l1.24-2.63 1.24 1.2a.21.21 0 0 0 .27 0 .73.73 0 0 0 .26-.32.79.79 0 0 0 0-.82Z" style="fill:#455a64;opacity:.5"/><path d="M124.07 193.9v-4.38a4.78 4.78 0 0 1 2.17-3.75L307.75 81c1.19-.69 2.16-.13 2.16 1.25v4.38a4.8 4.8 0 0 1-2.16 3.75L126.24 195.15c-1.24.69-2.17.13-2.17-1.25" style="fill:#fafafa"/><path d="M304.8 90.73a.5.5 0 0 1-.19 0 .59.59 0 0 1-.33-.65l.21-1.78-.83-.6a.58.58 0 0 1-.23-.49 1 1 0 0 1 .36-.75l1.27-1a.2.2 0 0 0 .05-.1l.57-1.87a.8.8 0 0 1 .64-.6.5.5 0 0 1 .5.3l.48 1 1.07-.41a.52.52 0 0 1 .58.13.81.81 0 0 1 0 .88l-.92 1.72v.11l.21 1.56a1 1 0 0 1-.24.82.61.61 0 0 1-.5.2l-1-.13-1.12 1.43a.64.64 0 0 1-.58.23m-.61-3.62.83.6a.64.64 0 0 1 .22.6l-.14 1.18.75-.95a.65.65 0 0 1 .57-.28l1 .13a.3.3 0 0 0 0-.12l-.22-1.56a1 1 0 0 1 .11-.56l.81-1.51-.83.32a.51.51 0 0 1-.66-.27l-.37-.79-.51 1.66a1 1 0 0 1-.31.47l-1.28 1a.2.2 0 0 0 .03.08m3.2-2.74" style="fill:#e0e0e0"/><g style="opacity:.5"><path d="M312.46 80.48a.75.75 0 0 1-.37-1.4l6.09-3.52a.75.75 0 0 1 .75 1.3l-6.09 3.52a.75.75 0 0 1-.38.1M312.46 84a.75.75 0 0 1-.37-1.4l6.09-3.52a.75.75 0 0 1 .75 1.3l-6.09 3.52a.86.86 0 0 1-.38.1M312.46 87.52a.75.75 0 0 1-.37-1.4l6.09-3.52a.74.74 0 0 1 1 .27.75.75 0 0 1-.27 1l-6.09 3.51a.76.76 0 0 1-.36.14" style="fill:#455a64"/></g><path d="m95.64 215.17-.01 14.06L322.07 98.5l.02-14.09z" style="fill:#455a64"/><path d="M121 206.2v2.72c0 .56.39.78.87.5l34-19.65V185l-34 19.65a1.94 1.94 0 0 0-.87 1.55" style="fill:#fafafa"/><path d="M160.5 182.37c.49-.28.88-.05.88.51v2.72a1.91 1.91 0 0 1-.88 1.51l-4.6 2.66V185Z" style="fill:#ab84f9"/><path d="m160.16 186.1-.51-.16a3 3 0 0 0 .08-.66 1.2 1.2 0 0 0-.47-1.09.71.71 0 0 0-.74 0 2.61 2.61 0 0 0-1 2.13 1.2 1.2 0 0 0 .47 1.1.63.63 0 0 0 .33.09.8.8 0 0 0 .42-.13 2.22 2.22 0 0 0 .83-1.11l.51.16h.06a.19.19 0 0 0 .18-.13.2.2 0 0 0-.16-.2m-1.64 1a.34.34 0 0 1-.37 0 .9.9 0 0 1-.28-.77 2.27 2.27 0 0 1 .84-1.8.43.43 0 0 1 .23-.07.3.3 0 0 1 .13 0 .88.88 0 0 1 .28.77 2.28 2.28 0 0 1-.83 1.85ZM115.07 208.63l-2.32 1.37a1.92 1.92 0 0 0-.87 1.5v2.69c0 .56.39.78.87.5l2.32-1.34a1.91 1.91 0 0 0 .87-1.5v-2.69c0-.58-.39-.81-.87-.53" style="fill:#fafafa"/><path d="M195.7 160.93a6.87 6.87 0 0 0-3.1 5.38c0 2 1.39 2.78 3.1 1.79a6.87 6.87 0 0 0 3.1-5.38c0-1.97-1.39-2.78-3.1-1.79" style="fill:#ab84f9"/><path d="M195.34 164.09a.55.55 0 0 1-.28-.07.68.68 0 0 1-.3-.62 1.8 1.8 0 0 1 .82-1.42.69.69 0 0 1 .69 0 .68.68 0 0 1 .3.62 1.8 1.8 0 0 1-.82 1.42.83.83 0 0 1-.41.07M196.93 164.3a1.08 1.08 0 0 0-1.1.08l-.45.26a3 3 0 0 0-1.39 2.42v.32a1.75 1.75 0 0 0 1.71-.18 5 5 0 0 0 1.71-1.8v-.08a1.11 1.11 0 0 0-.48-1.02" style="fill:#fff"/><path d="m202.8 158.53 21.25-12.28c.86-.49 1.56-.12 1.56.85a3.37 3.37 0 0 1-1.56 2.64L202.8 162c-.86.5-1.56.12-1.56-.84a3.38 3.38 0 0 1 1.56-2.63M235.24 139.82l13.19-7.68c.86-.5 1.55-.12 1.56.84a3.4 3.4 0 0 1-1.56 2.64l-13.19 7.69c-.86.49-1.56.12-1.56-.85a3.4 3.4 0 0 1 1.56-2.64M259.64 125.8l9.1-5.28c.86-.5 1.56-.12 1.56.84a3.38 3.38 0 0 1-1.56 2.64l-9.1 5.29c-.86.49-1.56.12-1.56-.84a3.4 3.4 0 0 1 1.56-2.65" style="fill:#e0e0e0"/><path d="M229.68 147.53a.38.38 0 0 1-.38-.38v-4.69a.38.38 0 0 1 .75 0v4.69a.38.38 0 0 1-.37.38M254.05 133.46a.38.38 0 0 1-.38-.38v-4.69a.38.38 0 0 1 .75 0v4.69a.38.38 0 0 1-.37.38M274.36 121.73a.38.38 0 0 1-.38-.37v-4.69a.38.38 0 1 1 .75 0v4.69a.38.38 0 0 1-.37.37" style="fill:#263238"/><path d="M282.17 114.5v-.86c0-1-.6-1.44-1.34-1a3.21 3.21 0 0 0-1.33 2.55v.81a3.07 3.07 0 0 1-.45 1.51.8.8 0 0 0-.11.39c0 .25.15.36.33.26l3.13-1.8a.83.83 0 0 0 .33-.65.33.33 0 0 0-.1-.26.92.92 0 0 1-.46-.95M281.48 117.1a1.55 1.55 0 0 1-.65 1.23c-.35.2-.64 0-.64-.49ZM287.88 110.72a.65.65 0 0 1-.31-.08.77.77 0 0 1-.34-.7 2 2 0 0 1 .92-1.6.79.79 0 0 1 .78-.06.77.77 0 0 1 .34.7 2 2 0 0 1-.92 1.6 1 1 0 0 1-.47.14M289.67 111a1.21 1.21 0 0 0-1.23.1l-.51.29a3.44 3.44 0 0 0-1.57 2.73v.36a2 2 0 0 0 1.93-.2 5.7 5.7 0 0 0 1.93-2v-.09a1.28 1.28 0 0 0-.55-1.19M290.36 108.4a.55.55 0 0 1-.31-.08.75.75 0 0 1-.34-.7 2 2 0 0 1 .92-1.6.69.69 0 0 1 1.11.65 2 2 0 0 1-.92 1.59.87.87 0 0 1-.46.14" style="fill:#ab84f9"/><path d="M292.15 108.64a1.22 1.22 0 0 0-1.24.09l-.5.3a3.23 3.23 0 0 0-1.29 1.52 1.14 1.14 0 0 1 1.09 0 1.27 1.27 0 0 1 .55 1.16v.22a5.55 5.55 0 0 0 1.94-2v-.09a1.27 1.27 0 0 0-.55-1.2M298.33 102.24a5.63 5.63 0 0 0-2.55 4.42 1.93 1.93 0 0 0 .57 1.51l-.32 1.51c0 .19.09.27.21.13l1.15-1.34a2.7 2.7 0 0 0 .94-.33 5.64 5.64 0 0 0 2.54-4.42c0-1.63-1.14-2.29-2.54-1.48M310.56 95.12a1.4 1.4 0 0 1 .63-.22.85.85 0 0 1 .51.09.84.84 0 0 1 .34.4 1.6 1.6 0 0 1 .13.69 2.5 2.5 0 0 1-.07.62 5 5 0 0 1-.18.56c-.08.17-.16.34-.25.5s-.17.31-.25.46-.16.31-.22.46a2 2 0 0 0-.14.45 2 2 0 0 1-.05.21.3.3 0 0 1-.11.13l-.72.42a.09.09 0 0 1-.12 0 .2.2 0 0 1-.05-.15 2.3 2.3 0 0 1 .08-.58 5 5 0 0 1 .2-.56c.08-.17.17-.35.26-.51s.18-.32.26-.47a3 3 0 0 0 .2-.42 1 1 0 0 0 .08-.39c0-.18 0-.29-.13-.34s-.22 0-.4.08a1.1 1.1 0 0 0-.39.35 1.7 1.7 0 0 0-.17.37c0 .12-.07.23-.09.32a.4.4 0 0 1-.15.22l-.73.42a.08.08 0 0 1-.1 0 .17.17 0 0 1 0-.12 3.2 3.2 0 0 1 .11-.75 5 5 0 0 1 .33-.84 4.5 4.5 0 0 1 .52-.79 2.5 2.5 0 0 1 .67-.61m.52 6a.5.5 0 0 1-.05.2.33.33 0 0 1-.11.14l-.76.43a.08.08 0 0 1-.11 0 .2.2 0 0 1-.05-.15v-.93a.5.5 0 0 1 .05-.2.27.27 0 0 1 .11-.14l.76-.44a.09.09 0 0 1 .11 0 .2.2 0 0 1 .05.15ZM132.19 215.32v41.9c0 1.38 1 1.94 2.17 1.25l149-86.06a4.8 4.8 0 0 0 2.16-3.75v-41.89c0-1.38-1-1.94-2.16-1.25l-149 86.05a4.78 4.78 0 0 0-2.17 3.75" style="fill:#ab84f9"/><path d="M132.19 215.32v41.9c0 1.38 1 1.94 2.17 1.25l149-86.06a4.8 4.8 0 0 0 2.16-3.75v-41.89c0-1.38-1-1.94-2.16-1.25l-149 86.05a4.78 4.78 0 0 0-2.17 3.75" style="fill:#fff;opacity:.7000000000000001"/><path d="M144.38 221.42c-4.49 2.6-8.13 8.9-8.13 14.08s3.64 7.28 8.13 4.69 8.13-8.89 8.12-14.08-3.64-7.28-8.12-4.69" style="fill:#ab84f9"/><path d="M143.43 229.69a1.4 1.4 0 0 1-.72-.19 1.76 1.76 0 0 1-.78-1.63 4.65 4.65 0 0 1 2.13-3.7 1.6 1.6 0 0 1 2.59 1.49 4.66 4.66 0 0 1-2.14 3.7 2.17 2.17 0 0 1-1.08.33M147.59 230.23a2.8 2.8 0 0 0-2.86.22l-1.18.68a8 8 0 0 0-3.66 6.33v.84c1.16.64 2.74.53 4.49-.48a13 13 0 0 0 4.48-4.7v-.2a3 3 0 0 0-1.27-2.69" style="fill:#fff"/><path d="m158.12 219.71 17.21-9.93c.86-.5 1.56-.18 1.56.7a3.28 3.28 0 0 1-1.56 2.5l-17.21 9.93c-.86.5-1.56.19-1.56-.7a3.28 3.28 0 0 1 1.56-2.5M157.48 226.37l10.12-5.84c.5-.3.91-.11.91.41a1.94 1.94 0 0 1-.91 1.47l-10.12 5.84c-.51.29-.92.11-.92-.41a1.91 1.91 0 0 1 .92-1.47" style="fill:#455a64"/><path d="m134.36 258.52 149-86a4.8 4.8 0 0 0 2.16-3.75v-6.87l-153.33 88.49v6.88c0 1.38.97 1.94 2.17 1.25" style="fill:#f5f5f5"/><path d="M172.81 234.29a.36.36 0 0 1-.37-.37v-4.69a.37.37 0 0 1 .37-.38.38.38 0 0 1 .38.38v4.69a.37.37 0 0 1-.38.37" style="fill:#ebebeb"/><path d="m154.64 240.47 13.18-7.69c.86-.49 1.56-.12 1.56.85a3.4 3.4 0 0 1-1.56 2.64L154.64 244c-.86.5-1.56.12-1.56-.84a3.4 3.4 0 0 1 1.56-2.69" style="fill:#e0e0e0"/><path d="M196.62 220.46a.37.37 0 0 1-.37-.38v-4.69a.37.37 0 0 1 .37-.37.38.38 0 0 1 .38.37v4.69a.38.38 0 0 1-.38.38" style="fill:#ebebeb"/><path d="m178.45 226.63 13.18-7.63c.86-.5 1.56-.12 1.56.84a3.38 3.38 0 0 1-1.56 2.64l-13.18 7.69c-.86.5-1.56.12-1.56-.84a3.4 3.4 0 0 1 1.56-2.7" style="fill:#e0e0e0"/><path d="M220.43 206.62a.38.38 0 0 1-.38-.37v-4.69a.38.38 0 0 1 .38-.38.37.37 0 0 1 .37.38v4.69a.37.37 0 0 1-.37.37" style="fill:#ebebeb"/><path d="m202.26 212.8 13.18-7.69c.86-.49 1.56-.12 1.56.85a3.4 3.4 0 0 1-1.56 2.64l-13.18 7.68c-.86.5-1.56.12-1.56-.84a3.4 3.4 0 0 1 1.56-2.64" style="fill:#e0e0e0"/><path d="M244.24 192.79a.38.38 0 0 1-.38-.38v-4.69a.37.37 0 0 1 .38-.37.36.36 0 0 1 .37.37v4.69a.37.37 0 0 1-.37.38" style="fill:#ebebeb"/><path d="m226.07 199 13.18-7.68c.86-.5 1.56-.12 1.56.84a3.38 3.38 0 0 1-1.56 2.64l-13.18 7.69c-.87.5-1.56.12-1.56-.84a3.37 3.37 0 0 1 1.56-2.65M249.87 185.13l13.19-7.69c.86-.49 1.56-.12 1.56.85a3.4 3.4 0 0 1-1.56 2.64l-13.19 7.68c-.86.5-1.55.12-1.55-.84a3.39 3.39 0 0 1 1.55-2.64" style="fill:#e0e0e0"/><path d="m127 398.89 13.29-7.66s8.25-24.28 6.16-46.64C143.82 316.81 130.7 307 123 310.14s-6.11 14.17 2.06 29c6.45 11.79 6.47 38.91 1.94 59.75" style="fill:#ab84f9"/><path d="m127 398.89 13.29-7.66s8.25-24.28 6.16-46.64C143.82 316.81 130.7 307 123 310.14s-6.11 14.17 2.06 29c6.45 11.79 6.47 38.91 1.94 59.75" style="opacity:.1"/><path d="M133.35 395.84a.6.6 0 0 0 .57-.41c8.56-26.21 8.92-63-7.28-79.61a.6.6 0 1 0-.86.84c15.29 15.66 15.56 52.16 7 78.39a.6.6 0 0 0 .39.76.6.6 0 0 0 .18.03" style="fill:#fff"/><path d="M103.08 412.68c-1.38.79-4.22-.94-5.3-1.67a13.2 13.2 0 0 1-4.37-5 12.33 12.33 0 0 1-1.1-7.4 30 30 0 0 1 .94-3.93c.37-1.27.73-2.54 1.1-3.82a9.7 9.7 0 0 0 .56-3.84c-.34-2.61-2.65-4.44-4.76-6-2.33-1.74-4.75-4.05-4.74-7.19a11 11 0 0 1 2.77-6.58c1.5-1.9 3.28-3.58 4.64-5.59a7.67 7.67 0 0 0 1.58-4.88 8.2 8.2 0 0 0-1.06-3.05c-1.11-2.05-2.58-3.92-3.34-6.12s-.66-4.93 1.06-6.5c1.41-1.29 3.5-1.47 5.41-1.35a12.4 12.4 0 0 1 5 1.77c5 2.78 7.84 8.68 13.13 10.82 2 .82 4.28 1 6.41 1.56s4.3 1.65 5.28 3.62c1.95 3.88-1.66 8.67-.3 12.79 1.21 3.64 4.76 5 6.75 8.32a7.8 7.8 0 0 1 .93 4.77 22.9 22.9 0 0 1-2 8.07 57 57 0 0 1-4.42 7.26c-.09.06-23.96 13.82-24.17 13.94" style="fill:#ab84f9"/><path d="M117.34 405a.55.55 0 0 0 .53-.48c2.57-20.36-7.15-47.83-21.67-61.22a.54.54 0 0 0-.73.79c14.29 13.19 23.86 40.24 21.33 60.3a.54.54 0 0 0 .47.6Z" style="fill:#fff"/><path d="M114.85 378.92a.53.53 0 0 0 .43-.22.54.54 0 0 0-.1-.75c-8-6-20.26-5-20.77-4.92a.54.54 0 0 0-.49.59.55.55 0 0 0 .58.49c.13 0 12.35-1.06 20 4.7a.56.56 0 0 0 .35.11M113.65 373.92a.53.53 0 0 0 .53-.51c.37-9.33 7.41-15 7.48-15a.54.54 0 0 0 .1-.76.55.55 0 0 0-.76-.09 22.43 22.43 0 0 0-7.89 15.82.54.54 0 0 0 .51.56Z" style="fill:#fff"/><path d="M245.93 395.74a68.18 68.18 0 0 1-33.32-48.88l-7.09-47.07A68.13 68.13 0 0 0 178 254.67l-9.25-6.67v5.28l5 3.62a68.18 68.18 0 0 1 27.5 45l7.23 47.4a68.19 68.19 0 0 0 33.3 48.76l4.13 2.38v-4.69Z" style="fill:#ebebeb"/><path d="m326.34 281.19-7.09-47.07A68.14 68.14 0 0 0 291.74 189l-9.25-6.68L168.75 248l9.25 6.68a68.13 68.13 0 0 1 27.52 45.12l7.09 47.07a68.18 68.18 0 0 0 33.32 48.88l113.74-65.67a68.15 68.15 0 0 1-33.33-48.89" style="fill:#fafafa"/><path d="m282.43 183.51 8.72 6.3a67.6 67.6 0 0 1 27.12 44.46l7.08 47.07a68.8 68.8 0 0 0 32.34 48.72l-111.76 64.52a66.84 66.84 0 0 1-32.34-47.87l-7.08-47.07a69.6 69.6 0 0 0-27.92-45.79l-8-5.77zm.06-1.19L168.75 248l9.25 6.68a68.13 68.13 0 0 1 27.52 45.12l7.09 47.07a68.18 68.18 0 0 0 33.32 48.88l113.74-65.67a68.15 68.15 0 0 1-33.33-48.88l-7.09-47.07A68.14 68.14 0 0 0 291.74 189z" style="fill:#e0e0e0"/><path d="m245.93 395.74 113.74-65.67v4.69l-113.74 65.67z" style="fill:#f5f5f5"/><path d="M190 244.46c-4 1.69-4.39 5.15-.95 7.75a14.94 14.94 0 0 0 13.42 1.63c4-1.68 4.4-5.15 1-7.74a14.91 14.91 0 0 0-13.47-1.64" style="fill:#ab84f9"/><path d="M194.3 248.67a4.6 4.6 0 0 1-1 0 4.3 4.3 0 0 1-2.07-.74c-.92-.69-.82-1.59.25-2a4.4 4.4 0 0 1 2.2-.23 4.46 4.46 0 0 1 2.07.75c.92.69.81 1.59-.25 2a3.6 3.6 0 0 1-1.2.22M199.93 248.58a7 7 0 0 0-3.48.36l-1 .44c-1.81.78-2 2.31-.42 3.49l.56.42a12.7 12.7 0 0 0 5.65-.45c1.72-.66 2.77-1.42 2.92-2.51l-.77-.51a7.3 7.3 0 0 0-3.46-1.24" style="fill:#fff"/><path d="m208.47 237.08 33.4-19.29a4.09 4.09 0 0 1 4.19.22l.3.24a1.62 1.62 0 0 1-.23 2.85l-33.37 19.33a3.89 3.89 0 0 1-4.08-.36c-.12-.09-.24-.18-.35-.28a1.5 1.5 0 0 1 .14-2.71M215.81 244.86l16.72-9.65a.89.89 0 0 0 .17-1.49l-.3-.29a1.74 1.74 0 0 0-2-.23l-16.63 9.72a.9.9 0 0 0-.17 1.5l.21.2a1.76 1.76 0 0 0 2 .24" style="fill:#455a64"/><path d="M204.88 263.19 295 211.14a2.78 2.78 0 0 1 3.61.79l.19.27a2.33 2.33 0 0 1-.8 3.34l-90.17 52.09a2.67 2.67 0 0 1-3.52-.85l-.19-.29a2.27 2.27 0 0 1 .76-3.3M210.35 272.07 300.57 220a2.32 2.32 0 0 1 3.29 1l.14.29a2.82 2.82 0 0 1-1.14 3.53l-90.24 52.14a2.21 2.21 0 0 1-3.17-1l-.16-.32a2.73 2.73 0 0 1 1.06-3.57M214.41 281.72l90.3-52.13a1.93 1.93 0 0 1 2.93 1.13l.12.45a3.37 3.37 0 0 1-1.5 3.66L216 287a1.83 1.83 0 0 1-2.81-1.17c0-.16-.09-.32-.14-.48a3.29 3.29 0 0 1 1.36-3.63M217 292.24l52.49-30.31a1.59 1.59 0 0 1 2.54 1.23l.11.7a3.93 3.93 0 0 1-1.79 3.72l-52.49 30.34a1.59 1.59 0 0 1-2.54-1.22c0-.25-.07-.49-.11-.74a4 4 0 0 1 1.79-3.72" style="opacity:.2"/><path d="m325.54 320.76-85.89 49.6a5.53 5.53 0 0 1-7.25-1.56q-8.15-12.48-10.88-31.09l-3.43-22.79a7.91 7.91 0 0 1 3.58-7.45l86-49.68c2.39-1.38 4.67-.28 5.08 2.45l3.43 22.8A71.7 71.7 0 0 0 327 314.17a4.55 4.55 0 0 1-1.46 6.59" style="fill:#ab84f9"/><path d="m325.54 320.76-85.89 49.6a5.53 5.53 0 0 1-7.25-1.56q-8.15-12.48-10.88-31.09l-3.43-22.79a7.91 7.91 0 0 1 3.58-7.45l86-49.68c2.39-1.38 4.67-.28 5.08 2.45l3.43 22.8A71.7 71.7 0 0 0 327 314.17a4.55 4.55 0 0 1-1.46 6.59" style="fill:#fff;opacity:.7000000000000001"/><path d="m239.65 370.36 85.89-49.6a4.55 4.55 0 0 0 1.46-6.59 66.3 66.3 0 0 1-6.82-13.91l-26.65-7.52L281.7 319l12.85 10.33-44.84-23.6-22.93 52.13a63 63 0 0 0 5.62 10.95 5.53 5.53 0 0 0 7.25 1.55" style="fill:#ab84f9"/><path d="M275.67 287.17c3.16-1.82 6.17-.31 6.73 3.38a10.56 10.56 0 0 1-4.72 10c-3.16 1.83-6.17.31-6.72-3.38a10.55 10.55 0 0 1 4.71-10M301.75 350.15a5 5 0 0 1-.86 0 3.7 3.7 0 0 1-1.74-.63c-.76-.57-.67-1.32.21-1.7a3.66 3.66 0 0 1 1.83-.19 3.8 3.8 0 0 1 1.74.62c.76.58.67 1.33-.21 1.71a2.9 2.9 0 0 1-.97.19M306.46 350.08a5.77 5.77 0 0 0-2.91.3l-.87.36c-1.51.65-1.67 1.93-.35 2.92l.46.35a10.7 10.7 0 0 0 4.73-.38c1.43-.55 2.31-1.19 2.44-2.1l-.65-.42a6 6 0 0 0-2.85-1.03M308.11 346.31l-3.22.16-.87.75a.31.31 0 0 0 0 .48l.87.69 3.27-.13Zm-3.44 1.36a.23.23 0 0 1-.23-.24.23.23 0 0 1 .23-.23.23.23 0 0 1 .24.23.24.24 0 0 1-.24.24M324.78 340.61c0 .49-.63.9-1 1.1a6.1 6.1 0 0 1-2.26.73c-.76-.89.7-2.44 3.26-1.83" style="fill:#ab84f9"/><path d="M324.9 337.46c-2.36-1.95-6.06-2.67-8.66-1.18s-3.11 4.64-.72 6.59 6.66 2 9.24.49 2.51-3.96.14-5.9M321 337a1.19 1.19 0 0 1 1.34.21.6.6 0 0 1-.12 1 1.22 1.22 0 0 1-1.39-.15.65.65 0 0 1 .17-1.06m-4.74 3.64a.65.65 0 0 1 .17-1.07 1.17 1.17 0 0 1 1.33.21.6.6 0 0 1-.11 1 1.22 1.22 0 0 1-1.44-.1Zm7.84 1.46a7.4 7.4 0 0 1-3.6.87 7.3 7.3 0 0 1-3.16-.67l6.72-3.79a2.79 2.79 0 0 1 1.26 2.1 2.15 2.15 0 0 1-1.27 1.53ZM339 328.67a4 4 0 0 0-.89-1 5.64 5.64 0 0 0-6.06-.83 2.7 2.7 0 0 0-.5 4.61 4.6 4.6 0 0 0 .67.44c3 1.71 8.45 1.92 8.45 1.92a9.6 9.6 0 0 0-1.67-5.14m-2.61 1.89a3 3 0 0 1-3.09-.16 1.3 1.3 0 0 1 .24-2.21 2.7 2.7 0 0 1 2.9.4c.8.65.83 1.47-.04 1.97Z" style="fill:#ab84f9"/><path d="m447.65 339.23-12.86 37.53a1.21 1.21 0 0 1-2.29 0l-12.69-37.83Z" style="fill:#ffa8a7"/><path d="M432.5 376.75a1.21 1.21 0 0 0 2.29 0l2.51-7.33a6.69 6.69 0 0 1-6.95-.39l-.56-.38Z" style="fill:#263238"/><path d="M420.29 171.58v8.1l-.46 159.24a17.8 17.8 0 0 0 11.73 5.52c6.73.7 13.64-1.51 16.1-5.21l.45-159.15v-8.47c-.33 5.48-28.06 5.47-27.82-.03" style="fill:#ab84f9"/><path d="M420.21 185.55v8.2c-.08 2.38 5 3.92 10.83 4.45 7.76.74 16.9-1.36 17-4.51v-8.21c-.12 3.15-9.26 5.26-17 4.52-5.6-.52-10.5-2-10.78-4.19a.5.5 0 0 1-.05-.26" style="fill:#ebebeb"/><path d="M420.23 187.6c-.2 5.52 27.62 5.45 27.82-.07v-8.21c-.2 5.52-28 5.59-27.82.07Z" style="fill:#ab84f9"/><path d="M420.29 171.58v8.1c-.24 5.42 26.61 5.58 27.82.4a1.4 1.4 0 0 0 .05-.31v-8.16c-.38 5.48-28.11 5.47-27.87-.03" style="fill:#ebebeb"/><path d="M448.23 136.86v-.35c0-3.95-6.22-7.16-13.9-7.16s-13.91 3.21-13.91 7.16v3.73l-.13 31.34c-.1 2.35 4.9 3.9 10.7 4.46 7.76.76 16.94-1.29 17.11-4.43l.12-34.5c.02-.11.01-.23.01-.25" style="fill:#f28f8f"/><ellipse cx="434.33" cy="136.51" rx="13.91" ry="7.16" style="fill:#fff;opacity:.2"/><path d="m448.08 180.08.15-43.22c-.18 3.38-6 6.58-12.25 6.81l-.45 200.9-.74 32.19 12.86-37.53Z" style="opacity:.1"/><path d="M403.09 213.56c5.29-.77 11.81 3.21 16.35 9.59s20.36 21.91 22.1 26.85c1.26 3.6.52 10.37-6.93 7.19-7.21-3.07-30.2-25.62-30.2-25.62Z" style="fill:#b16668"/><path d="M400.56 213.56a26.2 26.2 0 0 1 5.18-.58c1.83.12 5.94 1.21 10.17 5.33s15.21 17.43 15.21 17.43.49 3.74-3.19 7.91-7.12 4.17-7.12 4.17l-16.31-13.51Z" style="fill:#37474f"/><path d="m436.4 242.67 11.6-16.84v-12.37s2.56.86 3.58 4.85 2.29 8.63 1.78 12-8.54 23.95-12.87 26.85-4.09-14.49-4.09-14.49M384.19 207.97l2.26 14.24 14.11-.76-2.02-16.54z" style="fill:#b16668"/><path d="M374.7 190.51s-3.36 5.1-3 5.6 2.86 1 2.86 1Z" style="fill:#9a4a4d"/><path d="M384 176.39c-6.8 1.44-8.77 4.43-9.41 15.24-.67 11.3.48 14.85 2 16.37 1 1 6.57 1.21 9.38.44 3.51-1 11.46-3.79 15.18-9.47 4.37-6.68 5.52-15.75.84-19.46-6.59-5.24-15.18-3.7-17.99-3.12" style="fill:#b16668"/><path d="M384.32 208.75a28 28 0 0 0 3.58-.9 6.27 6.27 0 0 1-3.41 2Z" style="fill:#9a4a4d"/><path d="M374.2 179.82a13 13 0 0 0 3 1.21c1.66.48 1.41 1.1 1.64 2.62a6.18 6.18 0 0 0 1.87 3.59c.65.59 1.13.64 1.35 1.54a12.8 12.8 0 0 1 0 2.83c0 1.88 1.22 3.3 1.8.79 0 0 1.08-4.18 4.6-3.65s3.83 4.49 2.15 7.6c-1 1.9-3.76 1.4-3.76 1.4a12.27 12.27 0 0 0 3.68 9.47s3.5 2.6 9-.1a71 71 0 0 0 6.26-9.51c2.44-4.24 4.55-9.46 3.72-14.45a9.33 9.33 0 0 0-2.37-5 3.4 3.4 0 0 1-1.14-2.5 4.85 4.85 0 0 0-1.7-2.87 4.94 4.94 0 0 0-5-.67 4.14 4.14 0 0 0-3.16-3.7 7.6 7.6 0 0 0-5.07.7 5.6 5.6 0 0 0-9.4-.59 3 3 0 0 0-2.36-1.36 7.3 7.3 0 0 0-2.77.44 10.3 10.3 0 0 0-2.16.92 6.9 6.9 0 0 0-3.08 7.47 6 6 0 0 0 2.9 3.82" style="fill:#263238"/><path d="m406.07 178.69 4.07-2.4a2.36 2.36 0 1 0-4.07 2.4M409.87 390.08l.09.91a16.4 16.4 0 0 1 .09 3.63 3.22 3.22 0 0 1-1.12 2.43 10 10 0 0 1-2.65 1 9.3 9.3 0 0 1-6.17-.61c-1.6-.77-2.85-2-4.58-2.47a35 35 0 0 0-5.44-.9 12.3 12.3 0 0 1-2.41-.44 11 11 0 0 1-1.73-.78 16.9 16.9 0 0 1-5.13-3.75 8 8 0 0 1-1.84-3.66c-.16-.81-.48-3.12.85-3.06 6.55.29 13 1.7 19.58 1.62a9 9 0 0 1 1.28 0 5.6 5.6 0 0 1 2.2 1 2.26 2.26 0 0 0 2 .49 10.2 10.2 0 0 1 3.39.05 1.6 1.6 0 0 1 1.17.8 1.3 1.3 0 0 1 .1.49c.11 1.17.22 2.17.32 3.25" style="fill:#263238"/><path d="m409.2 382.24-.34 4.93c-.32 1.88-6.72 3-8-.29l-.63-5.6Z" style="fill:#b16668"/><path d="M384.83 401.76s.78 2.56 1.19 4.8c.32 1.78.77 4.76.12 6.08s-3.09 2.12-6.85 2c-2.43-.08-6.25 1.49-8.88 2.88s-8.29 1.9-11.12 1.51c-3.33-.47-6.74-2.49-7.25-3.88s.24-2.82 8.18-6c.07 0 11-3.32 14.92-7.43Z" style="fill:#263238"/><path d="M384.9 398.59s-.06 2.17-.07 3.42-1.53 3.06-5.33 2.84c-2.67-.16-4.51-.92-4.36-3.11l.07-3.17Z" style="fill:#b16668"/><path d="M411.78 344.33c-1.13-9.6-2-15.11-2-15.11s.2-13.38 1-25.85c.85-13.48.66-30.45 1-33.81 0 0-43.29-9.24-43.65 6.37-.4 18.14.8 55.67 1.06 60.56.36 6.86.38 14 1.54 25.13 1.15 11 4.48 36.95 4.48 36.95a10.28 10.28 0 0 0 9.69 0s3.77-31.11 3.62-39a108 108 0 0 0-1.64-17.1l3.41-35.22s1.34 10.89 1.7 17.75 1.3 11.05 3 23.82c1.47 11.07 5.2 34.45 5.2 34.45a8.77 8.77 0 0 0 9.21-.37s3.51-28.96 2.38-38.57" style="fill:#ab84f9"/><path d="M411.78 344.33c-1.13-9.6-2-15.11-2-15.11s.2-13.38 1-25.85c.85-13.48.66-30.45 1-33.81 0 0-43.29-9.24-43.65 6.37-.4 18.14.8 55.67 1.06 60.56.36 6.86.38 14 1.54 25.13 1.15 11 4.48 36.95 4.48 36.95a10.28 10.28 0 0 0 9.69 0s3.77-31.11 3.62-39a108 108 0 0 0-1.64-17.1l3.41-35.22s1.34 10.89 1.7 17.75 1.3 11.05 3 23.82c1.47 11.07 5.2 34.45 5.2 34.45a8.77 8.77 0 0 0 9.21-.37s3.51-28.96 2.38-38.57" style="opacity:.30000000000000004"/><path d="M406.76 290.88s-3 4.95-12.1 8.57l-2.54 8.5-.27 14.94c-.35-4.81-.88-10.07-1.56-15.64l1-8.76s10.08-3.04 15.47-7.61" style="opacity:.15"/><path d="M413.45 222.77c-1.74-6.19-5.83-8.92-10.36-9.21-1.15-.07-3.49 0-3.49 0 .32 2.63-7.76 4.48-14 3-1.9.49-5 1.2-6.61 1.73-4.51 1.5-9.93 7.14-10.63 21.87 0 0-.72 31.65-.5 40.85 11.15 4.7 21.92 5.29 28.41 4 13.53-2.63 15.75-8.43 15.75-8.43s-.12-8-.63-20.87c2.26-18.2 2.81-30.26 2.06-32.94" style="fill:#455a64"/><path d="M360.7 275.23a8.39 8.39 0 0 1 3.95 7c.19 2.88.19 6 1.54 8.61.22.43 1.4 1.4 1.86 1.26v-3.68c.75-.95 2.8-2.72 3.33-3.81.88-1.82-.15-4 .38-6a9 9 0 0 0 .68-2.42 6.77 6.77 0 0 0-2.25-5.54c-2-1.61-3.76-3.61-5.55-5.41-2.32-2.33-5.54-5.76-7.86-8.1l15.57-14.93a22.5 22.5 0 0 0 4.44-5.91c2.55-4.9 6-13.49 2.15-18-5.55 0-8.7.85-14.37 7.46-4.89 5.7-20.5 24.4-22.51 27.57s-3.16 5.34.69 8.86a116 116 0 0 0 9.82 7.51c2.63 1.89 5.5 3.66 8.13 5.53" style="fill:#b16668"/><path d="M356.79 257.19a17.5 17.5 0 0 1-4.77 3.28 14.3 14.3 0 0 0 5.85-2.18Z" style="fill:#9a4a4d"/><path d="M380.69 217.8a27.5 27.5 0 0 0-6.72.51c-3.37.73-5.64 2.44-11.48 9.05s-9.94 12-9.94 12-1.68 3.72 3 7.94 8.9 3.49 8.9 3.49l13.12-12.76s9.36-9.79 3.12-20.23" style="fill:#37474f"/></svg>